<svg xmlns="http://www.w3.org/2000/svg" viewBox="0 0 537.29 63.81"><defs><style>.cls-1{fill:#048ea9;}.cls-1,.cls-2{opacity:0.75;}.cls-2{fill:#f15b24;}.cls-3{fill:#231f20;}</style></defs><g id="Layer_2" data-name="Layer 2"><g id="Layer_1-2" data-name="Layer 1"><polygon class="cls-1" points="0 63.81 21.75 0 45.37 0 21.37 63.81 0 63.81"/><polygon class="cls-2" points="70.36 63.74 45.37 0 21.75 0 49 63.74 70.36 63.74"/><path class="cls-3" d="M123.7,49.46h.47V50H107.7v-.52h.46a2,2,0,0,0,1.68-.7,2.17,2.17,0,0,0,.54-1.31,3.21,3.21,0,0,0-.26-1.24l-2.53-6.35H95.51l-2.68,6.35a3.34,3.34,0,0,0-.26,1.26,2.09,2.09,0,0,0,.57,1.29,2,2,0,0,0,1.7.7h.41V50h-11v-.52h.47A4.53,4.53,0,0,0,87,48.74a5.54,5.54,0,0,0,2-2.17l11.93-27q2.43-5.11,2.58-6.76H104l15.33,33.66a5.61,5.61,0,0,0,2,2.25A4.48,4.48,0,0,0,123.7,49.46ZM96.39,37.69h10.33l-5-12.71Z"/><path class="cls-3" d="M129.28,49.46a3.14,3.14,0,0,0,2.3-1,3.31,3.31,0,0,0,1-2.29V17.6a3.35,3.35,0,0,0-1-2.3,3.17,3.17,0,0,0-2.3-1h-.67v-.52H144.3l-.05.52h-.62a3.23,3.23,0,0,0-2.32,1,3.12,3.12,0,0,0-1,2.3V47.75h6.76a9.47,9.47,0,0,0,6.33-2.16,12.83,12.83,0,0,0,3.79-6.15h.52L155.35,50H128.61v-.52Z"/><path class="cls-3" d="M184.84,13.83h11v.52h-.47a4.53,4.53,0,0,0-2.37.72,5.49,5.49,0,0,0-2,2.17l-12.23,27q-2.39,5.11-2.53,6.77h-.47L160.21,17.29a5.75,5.75,0,0,0-2-2.19,4.54,4.54,0,0,0-2.43-.75h-.41v-.52h16.42v.52h-.42a2,2,0,0,0-1.68.69,2.22,2.22,0,0,0-.54,1.32,3.84,3.84,0,0,0,.21,1.24l8.78,21.33,9.08-21.33a3.38,3.38,0,0,0,.26-1.26A2.19,2.19,0,0,0,187,15a2,2,0,0,0-1.68-.69h-.46Z"/><path class="cls-3" d="M230.43,49.46h.46V50H214.42v-.52h.47a2,2,0,0,0,1.68-.7,2.17,2.17,0,0,0,.54-1.31,3.21,3.21,0,0,0-.26-1.24l-2.53-6.35H202.24l-2.69,6.35a3.55,3.55,0,0,0-.26,1.26,2.09,2.09,0,0,0,.57,1.29,2.07,2.07,0,0,0,1.71.7H202V50h-11v-.52h.46a4.54,4.54,0,0,0,2.38-.72,5.54,5.54,0,0,0,2-2.17l11.93-27q2.43-5.11,2.58-6.76h.47L226,46.46a5.67,5.67,0,0,0,2,2.25A4.49,4.49,0,0,0,230.43,49.46ZM203.12,37.69h10.32l-5-12.71Z"/><path class="cls-3" d="M275.35,14.35a3,3,0,0,0-2.74,1.55,3.24,3.24,0,0,0-.46,1.55V44.09a30.93,30.93,0,0,0,.46,5.83l.16.78h-.47L246.23,25.86v20.5a3,3,0,0,0,.93,2.2,3.08,3.08,0,0,0,2.22.9h1V50H234.72v-.52h.92a3.15,3.15,0,0,0,2.28-.9,3,3,0,0,0,.93-2.25V19.51a29,29,0,0,0-.47-5.68l-.1-.77h.46l26.08,24.83V17.5a3.2,3.2,0,0,0-1-2.25,3.08,3.08,0,0,0-2.22-.9h-.93v-.52h15.64v.52Z"/><path class="cls-3" d="M316.24,18.69q5.33,4.85,5.32,13.21t-5.32,13.22Q310.93,50,301.79,50H283v-.52h.68a3.1,3.1,0,0,0,2.29-1,3.27,3.27,0,0,0,1-2.29V17.29a2.64,2.64,0,0,0-1-2.09,3.42,3.42,0,0,0-2.29-.85H283v-.52h18.75Q310.92,13.83,316.24,18.69ZM301.12,47.75a10.8,10.8,0,0,0,6.42-1.91,11.92,11.92,0,0,0,4.16-5.49,20.86,20.86,0,0,0,1.45-7.83,26.72,26.72,0,0,0-.85-7.2,15.18,15.18,0,0,0-2.41-5A10.35,10.35,0,0,0,301.12,16h-6.35V47.75Z"/><path class="cls-3" d="M329.31,49.46a3.14,3.14,0,0,0,2.3-1,3.31,3.31,0,0,0,1-2.29V17.55a3.3,3.3,0,0,0-3.3-3.2h-.67v-.52h15.69l-.05.52h-.62a3.26,3.26,0,0,0-2.32.93,3,3,0,0,0-1,2.27V46.21a3,3,0,0,0,1,2.29,3.2,3.2,0,0,0,2.32,1h.62l.05.52H328.64v-.52Z"/><path class="cls-3" d="M366,50h-12.6l.05-.52H354a3.19,3.19,0,0,0,2.3-.93,3.24,3.24,0,0,0,1-2.27V17.55a3,3,0,0,0-1-2.27,3.26,3.26,0,0,0-2.32-.93h-.62l-.05-.52h10.27c3.55,0,6.3.78,8.27,2.35a7.63,7.63,0,0,1,2.94,6.27,7.82,7.82,0,0,1-5.68,7.85,10.24,10.24,0,0,1,6.45,3.36A10.1,10.1,0,0,1,378,40.55a8.41,8.41,0,0,1-3.18,6.79C372.71,49.1,369.75,50,366,50Zm-5.27-1.86h5.16A8.31,8.31,0,0,0,372,46a8.15,8.15,0,0,0,2.17-6.06,9.49,9.49,0,0,0-.75-3.9,7.4,7.4,0,0,0-1.89-2.66c-2-1.65-5-2.48-9-2.48h-.05v-.46H363a11,11,0,0,0,1.26-.11,16.66,16.66,0,0,0,1.86-.36,5.79,5.79,0,0,0,1.86-.82,9.32,9.32,0,0,0,1.55-1.35,7.48,7.48,0,0,0,1.5-5.08,7.12,7.12,0,0,0-1.94-5.3,7.66,7.66,0,0,0-5.6-1.91H360.7Z"/><path class="cls-3" d="M393.41,18.3q5.14-5.19,13.4-5.19t13.42,5.19q5.17,5.19,5.17,13.6t-5.17,13.61q-5.16,5.19-13.42,5.19t-13.4-5.19q-5.13-5.19-5.14-13.61T393.41,18.3Zm2.84,26.1a14.17,14.17,0,0,0,21.17,0q4-4.76,4-12.5a21.44,21.44,0,0,0-1.8-9,13.55,13.55,0,0,0-12.81-8.21,13.12,13.12,0,0,0-10.56,4.75q-4,4.75-4,12.49T396.25,44.4Z"/><path class="cls-3" d="M440.55,18.3q5.15-5.19,13.4-5.19t13.43,5.19q5.16,5.19,5.16,13.6t-5.16,13.61Q462.21,50.7,454,50.7t-13.4-5.19q-5.13-5.19-5.14-13.61T440.55,18.3Zm2.84,26.1a14.17,14.17,0,0,0,21.17,0q4-4.76,4-12.5a21.44,21.44,0,0,0-1.8-9A13.55,13.55,0,0,0,454,14.66a13.12,13.12,0,0,0-10.56,4.75q-4,4.75-4,12.49T443.39,44.4Z"/><path class="cls-3" d="M491.65,49.46h.67V50H481v-.52h.67a3.14,3.14,0,0,0,2.3-1,3.31,3.31,0,0,0,1-2.29V17.55a3.3,3.3,0,0,0-3.3-3.2H481v-.52h11.31v.52h-.67a3.31,3.31,0,0,0-3.31,3.2V46.21a3.09,3.09,0,0,0,1,2.29A3.21,3.21,0,0,0,491.65,49.46ZM512.4,50h-2.22c-3.51,0-6.09-1-7.74-2.95L490,32l12.19-15.29a1.57,1.57,0,0,0,.41-.93,1.66,1.66,0,0,0-.15-.72,1.55,1.55,0,0,0-1.5-.77h-.52v-.47h10.9v.47h-.21a7.17,7.17,0,0,0-5.58,2.42L493.4,30.77l14.1,16.57a6.84,6.84,0,0,0,4.9,2.12Z"/><path class="cls-3" d="M518.86,47.86a15.24,15.24,0,0,1-.16-2.79,13.81,13.81,0,0,1,.78-4.39h.46c0,.38-.05.76-.05,1.14a7.45,7.45,0,0,0,1.91,5.24,6.53,6.53,0,0,0,5.06,2.09,7.47,7.47,0,0,0,5.34-2,6.45,6.45,0,0,0,2.09-4.93,6.28,6.28,0,0,0-2-4.83l-9.91-9.19A8.21,8.21,0,0,1,519.58,22,8.83,8.83,0,0,1,522,15.72a8.68,8.68,0,0,1,6.64-2.61,22.4,22.4,0,0,1,4.44.51h2V20h-.46A4.87,4.87,0,0,0,533,16.1a6.39,6.39,0,0,0-4.31-1.44,6,6,0,0,0-4.42,1.75,5.91,5.91,0,0,0-1.78,4.39,6,6,0,0,0,2.06,4.55l10.18,9.39a8.43,8.43,0,0,1,2.58,6.51A9.27,9.27,0,0,1,534.66,48a9.47,9.47,0,0,1-7,2.66,18.12,18.12,0,0,1-4.82-.7A8.4,8.4,0,0,1,518.86,47.86Z"/></g></g></svg>